<svg xmlns="http://www.w3.org/2000/svg" viewBox="0 0 64 64">
  <rect width="64" height="64" rx="14" fill="#101820"/>
  <path d="M18 39V25c0-3.3 2.7-6 6-6h16c3.3 0 6 2.7 6 6v14c0 3.3-2.7 6-6 6H24c-3.3 0-6-2.7-6-6Z" fill="#162a34" stroke="#26d07c" stroke-width="3"/>
  <path d="M25 30.5c4.2-3.7 9.8-3.7 14 0" fill="none" stroke="#e8fff2" stroke-linecap="round" stroke-width="3"/>
  <path d="M29 35c1.8-1.4 4.2-1.4 6 0" fill="none" stroke="#e8fff2" stroke-linecap="round" stroke-width="3"/>
  <circle cx="32" cy="39.5" r="2.5" fill="#26d07c"/>
  <path d="M50 17v11M55.5 22.5h-11" stroke="#26d07c" stroke-linecap="round" stroke-width="3"/>
  <path d="M15 50h34" stroke="#4b6370" stroke-linecap="round" stroke-width="3"/>
</svg>
